<?xml version="1.0" standalone="no"?>
<!DOCTYPE svg PUBLIC "-//W3C//DTD SVG 20010904//EN"
 "http://www.w3.org/TR/2001/REC-SVG-20010904/DTD/svg10.dtd">
<svg version="1.0" xmlns="http://www.w3.org/2000/svg" 
 width="512.000000pt" height="512.000000pt" viewBox="0 0 512.000000 512.000000"
 preserveAspectRatio="xMidYMid meet">
<metadata>
Created by potrace 1.16, written by Peter Selinger 2001-2019
</metadata>
<g transform="translate(0.000000,512.000000) scale(0.100000,-0.100000)"
fill="#000000" stroke="none">
<path d="M1537 4839 c-184 -27 -346 -189 -376 -379 -6 -37 -11 -228 -11 -446
0 -371 1 -382 21 -408 29 -37 89 -37 118 0 20 26 21 37 21 430 0 384 1 406 21
459 28 74 100 146 174 174 52 20 76 21 369 21 302 0 314 1 340 21 37 29 37 89
0 118 -26 20 -37 21 -323 20 -163 -1 -322 -5 -354 -10z" fill="#aea7af"/>
<path d="M2436 4829 c-20 -16 -26 -29 -26 -59 0 -57 34 -80 115 -80 81 0 115
23 115 80 0 57 -34 80 -115 80 -48 0 -68 -5 -89 -21z" fill="#aea7af"/>
<path d="M2850 4843 c-56 -21 -70 -96 -24 -132 26 -21 35 -21 585 -21 541 0
560 -1 614 -21 74 -28 146 -100 174 -174 21 -55 21 -67 21 -1038 l0 -982 -45
3 -44 4 -3 961 -3 962 -24 53 c-29 65 -96 125 -161 147 -41 14 -90 16 -308 13
l-259 -3 -40 -27 c-51 -34 -82 -83 -92 -147 -14 -87 23 -81 -476 -81 -500 0
-462 -6 -476 83 -11 64 -51 123 -104 151 -37 19 -59 21 -293 24 -212 2 -262 0
-302 -13 -66 -22 -132 -82 -161 -147 l-24 -53 -3 -1097 -3 -1098 -44 0 -45 0
0 384 c0 373 -1 384 -21 410 -29 37 -89 37 -118 0 -20 -26 -21 -37 -21 -410
l0 -384 -112 0 c-101 0 -115 -2 -154 -25 -50 -29 -87 -87 -103 -160 -5 -27
-22 -160 -36 -295 -36 -352 -24 -312 -111 -366 -41 -26 -79 -55 -84 -65 -6
-10 -10 -122 -10 -261 0 -215 3 -248 19 -284 22 -48 59 -80 112 -95 l37 -12 4
-116 c3 -130 13 -152 79 -190 34 -19 53 -21 231 -21 186 0 197 1 229 23 66 44
79 77 79 198 l0 109 260 0 260 0 0 -97 c0 -115 19 -166 71 -204 33 -23 42 -24
230 -27 224 -4 248 2 295 64 27 35 29 44 32 149 l4 112 38 12 c21 6 43 18 50
26 11 13 59 15 321 15 l309 0 0 -189 c0 -171 2 -191 19 -212 l19 -24 573 -3
c611 -3 622 -2 640 45 5 13 9 131 9 262 0 226 -1 240 -21 265 -17 22 -28 26
-70 26 l-49 0 1 83 0 82 62 45 c73 54 135 141 168 236 24 69 24 69 24 566 0
488 0 497 -21 525 -34 46 -82 73 -130 73 l-44 0 0 953 c0 578 -4 979 -10 1021
-29 197 -189 357 -386 386 -71 10 -1107 13 -1134 3z m-736 -394 c18 -14 26
-30 26 -52 1 -83 73 -167 160 -186 32 -7 202 -11 465 -11 263 0 433 4 465 11
86 18 159 103 160 184 1 69 21 75 265 75 231 0 261 -6 295 -62 20 -32 20 -48
20 -987 0 -865 -1 -953 -16 -947 -9 3 -47 6 -84 6 l-69 0 -3 273 c-3 259 -4
274 -25 313 -90 168 -329 179 -428 20 l-30 -49 -5 -483 -5 -483 -95 107 c-119
133 -158 157 -255 156 -84 0 -136 -24 -188 -84 -70 -82 -76 -204 -14 -307 19
-32 95 -166 168 -298 203 -368 256 -455 315 -513 l54 -52 -325 0 -325 0 0 108
c0 124 2 120 -107 187 -40 24 -63 44 -63 56 0 61 -63 583 -75 626 -18 61 -65
120 -112 139 -25 11 -110 14 -378 14 l-345 0 0 1083 c0 1067 0 1082 20 1115
34 56 61 61 296 62 199 0 213 -1 238 -21z m1506 -1434 l25 -25 5 -486 c5 -466
6 -486 24 -500 30 -22 74 -17 101 11 24 23 25 28 25 170 l0 146 53 -3 52 -3 5
-153 c4 -137 7 -155 24 -168 30 -22 74 -17 101 11 24 23 25 28 25 170 l0 146
53 -3 52 -3 3 -157 3 -157 27 -21 c32 -26 78 -21 105 11 15 18 17 43 17 176
l0 154 53 -3 52 -3 3 -420 c1 -254 -2 -441 -8 -475 -21 -115 -94 -217 -191
-265 -25 -13 -49 -31 -53 -40 -3 -9 -6 -70 -6 -136 l0 -119 -315 0 -315 0 0
118 c0 140 -5 150 -93 191 -34 15 -77 40 -94 55 -39 33 -114 157 -293 481 -73
132 -146 263 -163 290 -41 67 -42 118 -3 152 22 19 37 23 70 21 40 -3 46 -9
210 -195 164 -189 169 -193 207 -193 26 0 46 7 59 20 20 20 20 34 20 593 1
455 3 577 14 596 30 55 99 62 146 16z m-1386 -977 c8 -13 18 -42 22 -65 l7
-43 -673 0 -672 0 6 23 c3 12 6 29 6 38 0 9 9 28 21 43 l20 26 624 0 625 0 14
-22z m-134 -736 c-128 -64 -157 -82 -164 -104 -14 -39 3 -80 39 -97 35 -17 23
-21 252 89 l171 83 46 -27 46 -27 0 -197 c0 -141 -3 -201 -12 -210 -9 -9 -76
-12 -239 -12 l-226 0 -5 85 c-6 92 -23 133 -71 169 -27 20 -41 21 -329 24
-288 3 -302 2 -343 -18 -61 -30 -85 -81 -85 -183 l0 -77 -229 0 c-195 0 -232
2 -245 16 -13 13 -16 46 -16 207 l0 192 45 28 c25 15 50 27 55 27 5 0 91 -41
192 -91 140 -69 188 -89 208 -84 41 10 60 34 60 75 0 23 -7 43 -17 52 -10 9
-81 48 -158 86 l-140 71 660 0 660 0 -155 -77z m-250 -437 l0 -65 -260 0 -260
0 0 58 c0 32 3 62 7 65 3 4 120 7 260 7 l253 0 0 -65z m1530 36 l0 -29 -77 -7
c-43 -3 -210 -8 -370 -11 l-293 -5 0 41 0 40 370 0 370 0 0 -29z m-2202 -338
l-3 -88 -155 0 -155 0 -3 88 -3 87 161 0 161 0 -3 -87z m1150 0 l-3 -88 -157
-3 -158 -3 0 91 0 90 160 0 161 0 -3 -87z" fill="#aea7af"/>
<path d="M1843 4089 c-80 -39 -124 -113 -124 -208 -1 -97 42 -169 126 -214 40
-22 41 -22 899 -25 964 -3 920 -6 995 69 93 94 91 249 -6 341 -63 61 -21 58
-975 58 -867 0 -873 0 -915 -21z" fill="#aea7af"/>
<path d="M1862 3507 c-115 -42 -177 -175 -140 -301 16 -54 90 -128 144 -144
30 -9 175 -12 535 -12 460 0 497 2 534 19 49 23 99 74 119 123 21 51 20 143
-3 193 -23 51 -89 111 -138 124 -56 16 -1007 13 -1051 -2z" fill="#aea7af"/>
<path d="M1842 2889 c-113 -56 -163 -195 -111 -309 27 -60 54 -88 114 -116
l50 -24 489 0 c342 0 500 3 527 12 92 27 159 121 159 221 0 98 -50 179 -135
218 -37 17 -74 19 -545 19 -494 0 -506 0 -548 -21z" fill="#aea7af"/>
<path d="M820 1010 c-27 -27 -27 -83 2 -110 30 -28 184 -30 218 -2 31 25 32
88 1 113 -35 29 -192 28 -221 -1z" fill="#aea7af"/>
<path d="M2140 1008 c-27 -30 -26 -79 3 -106 20 -19 35 -22 111 -22 79 0 89 2
111 25 30 30 32 64 4 99 -19 25 -25 26 -114 26 -84 0 -96 -2 -115 -22z" fill="#aea7af"/>
<path d="M2430 4570 c-13 -13 -20 -33 -20 -59 0 -71 1 -71 361 -71 l318 0 20
26 c28 35 26 69 -4 99 l-24 25 -316 0 c-302 0 -316 -1 -335 -20z" fill="#aea7af"/>
<path d="M1171 3394 c-17 -22 -21 -41 -21 -105 0 -43 5 -89 11 -103 16 -35 61
-52 98 -37 39 17 51 49 51 140 0 99 -20 131 -80 131 -30 0 -43 -6 -59 -26z" fill="#aea7af"/>
</g>
</svg>
