<?xml version="1.0" standalone="no"?>
<!DOCTYPE svg PUBLIC "-//W3C//DTD SVG 20010904//EN"
 "http://www.w3.org/TR/2001/REC-SVG-20010904/DTD/svg10.dtd">
<svg version="1.0" xmlns="http://www.w3.org/2000/svg"
 width="512.000000pt" height="512.000000pt" viewBox="0 0 512.000000 512.000000"
 preserveAspectRatio="xMidYMid meet">
<metadata>
Created by potrace 1.16, written by Peter Selinger 2001-2019
</metadata>
<g transform="translate(0.000000,512.000000) scale(0.100000,-0.100000)"
fill="#aea7af" stroke="none">
<path d="M2507 4255 c-77 -27 -114 -88 -104 -172 6 -53 30 -90 78 -118 33 -19
57 -20 879 -26 629 -4 856 -8 890 -18 183 -51 363 -192 456 -357 30 -54 74
-163 74 -185 0 -5 -658 -10 -1462 -11 l-1463 -3 -110 -23 c-528 -112 -951
-434 -1186 -901 -26 -53 -163 -385 -303 -738 -266 -667 -275 -697 -245 -756
24 -47 62 -76 113 -87 36 -8 747 -10 2473 -8 l2422 3 28 21 c15 11 38 36 51
54 l22 34 -3 1215 -3 1216 -22 77 c-109 376 -376 650 -735 752 -143 41 -253
46 -1057 46 -613 -1 -762 -3 -793 -15z m2293 -1820 l0 -615 -2074 0 -2075 0
90 222 c133 328 202 442 369 609 224 222 537 368 840 392 25 2 676 4 1448 5
l1402 2 0 -615z m0 -1095 l0 -160 -2201 0 c-1258 0 -2199 4 -2197 9 2 5 30 77
63 160 l60 151 2138 0 2137 0 0 -160z"/>
<path d="M4261 2649 c-177 -33 -236 -265 -97 -386 46 -41 96 -56 167 -51 79 6
134 43 172 117 87 173 -51 355 -242 320z"/>
</g>
</svg>
